<?xml version="1.0" encoding="UTF-8" standalone="no"?>
<!-- Created with Inkscape (http://www.inkscape.org/) -->

<svg
   xmlns:dc="http://purl.org/dc/elements/1.1/"
   xmlns:cc="http://creativecommons.org/ns#"
   xmlns:rdf="http://www.w3.org/1999/02/22-rdf-syntax-ns#"
   xmlns:svg="http://www.w3.org/2000/svg"
   xmlns="http://www.w3.org/2000/svg"
   xmlns:sodipodi="http://sodipodi.sourceforge.net/DTD/sodipodi-0.dtd"
   xmlns:inkscape="http://www.inkscape.org/namespaces/inkscape"
   width="100%"
   height="100%"
   id="svg2"
   version="1.1"
   inkscape:version="0.48.2 r9819"
   sodipodi:docname="keyboard.svg"
   viewbox="0 0 211 100"
   preserveAspectRatio="xMinYMin meet">
  <defs
     id="defs4" />
  <sodipodi:namedview
     id="base"
     pagecolor="#ffffff"
     bordercolor="#666666"
     borderopacity="1.0"
     inkscape:pageopacity="0.0"
     inkscape:pageshadow="2"
     inkscape:zoom="0.35355339"
     inkscape:cx="45.361298"
     inkscape:cy="-1013.2894"
     inkscape:document-units="px"
     inkscape:current-layer="layer1"
     showgrid="true"
     fit-margin-top="0"
     fit-margin-left="0"
     fit-margin-right="0"
     fit-margin-bottom="0"
     inkscape:window-width="1680"
     inkscape:window-height="1006"
     inkscape:window-x="0"
     inkscape:window-y="0"
     inkscape:window-maximized="1">
    <inkscape:grid
       type="xygrid"
       id="grid3761"
       empspacing="5"
       visible="true"
       enabled="true"
       snapvisiblegridlinesonly="true"
       spacingx="1px"
       spacingy="1px" />
  </sodipodi:namedview>
  <metadata
     id="metadata7">
    <rdf:RDF>
      <cc:Work
         rdf:about="">
        <dc:format>image/svg+xml</dc:format>
        <dc:type
           rdf:resource="http://purl.org/dc/dcmitype/StillImage" />
        <dc:title></dc:title>
      </cc:Work>
    </rdf:RDF>
  </metadata>
  <g
     inkscape:label="Layer 1"
     inkscape:groupmode="layer"
     id="layer1"
     transform="translate(-30,-932.3125)">
    <rect
       style="fill:#ffffff;fill-opacity:1;stroke-width:1;stroke-linecap:square;stroke-miterlimit:4;stroke-dasharray:none"
       id="rect4004"
       width="210"
       height="100"
       x="30"
       y="932.36218" />
    <g
       id="g4239">
      <g
         id="g3883">
        <path
           style="fill:none;stroke:#000000;stroke-width:1;stroke-linecap:square;stroke-linejoin:miter;stroke-miterlimit:4;stroke-opacity:1;stroke-dasharray:none"
           d="m 45.007401,992.86626 0,38.99264"
           id="path2989"
           inkscape:connector-curvature="0" />
        <rect
           style="fill:#000000;fill-opacity:1"
           id="rect2991"
           width="9.9977226"
           height="60"
           x="40"
           y="932.36218" />
      </g>
      <g
         transform="translate(15,0)"
         id="g3887">
        <path
           inkscape:connector-curvature="0"
           id="path3889"
           d="m 45.007401,992.86626 0,38.99264"
           style="fill:none;stroke:#000000;stroke-width:1;stroke-linecap:square;stroke-linejoin:miter;stroke-miterlimit:4;stroke-opacity:1;stroke-dasharray:none" />
        <rect
           y="932.36218"
           x="40"
           height="60"
           width="9.9977226"
           id="rect3891"
           style="fill:#000000;fill-opacity:1" />
      </g>
      <g
         id="g3893"
         transform="translate(45,0)">
        <path
           style="fill:none;stroke:#000000;stroke-width:1;stroke-linecap:square;stroke-linejoin:miter;stroke-miterlimit:4;stroke-opacity:1;stroke-dasharray:none"
           d="m 45.007401,992.86626 0,38.99264"
           id="path3895"
           inkscape:connector-curvature="0" />
        <rect
           style="fill:#000000;fill-opacity:1"
           id="rect3897"
           width="9.9977226"
           height="60"
           x="40"
           y="932.36218" />
      </g>
      <path
         style="fill:none;stroke:#000000;stroke-width:1;stroke-linecap:square;stroke-linejoin:miter;stroke-miterlimit:4;stroke-opacity:1;stroke-dasharray:none"
         d="m 75.5,1031.8256 0,-98.92674"
         id="path3899"
         inkscape:connector-curvature="0" />
      <g
         transform="translate(60,0)"
         id="g3901">
        <path
           inkscape:connector-curvature="0"
           id="path3903"
           d="m 45.007401,992.86626 0,38.99264"
           style="fill:none;stroke:#000000;stroke-width:1;stroke-linecap:square;stroke-linejoin:miter;stroke-miterlimit:4;stroke-opacity:1;stroke-dasharray:none" />
        <rect
           y="932.36218"
           x="40"
           height="60"
           width="9.9977226"
           id="rect3905"
           style="fill:#000000;fill-opacity:1" />
      </g>
      <g
         id="g3907"
         transform="translate(75,0)">
        <path
           style="fill:none;stroke:#000000;stroke-width:1;stroke-linecap:square;stroke-linejoin:miter;stroke-miterlimit:4;stroke-opacity:1;stroke-dasharray:none"
           d="m 45.007401,992.86626 0,38.99264"
           id="path3909"
           inkscape:connector-curvature="0" />
        <rect
           style="fill:#000000;fill-opacity:1"
           id="rect3911"
           width="9.9977226"
           height="60"
           x="40"
           y="932.36218" />
      </g>
      <path
         style="fill:none;stroke:#000000;stroke-width:1;stroke-linecap:square;stroke-linejoin:miter;stroke-miterlimit:4;stroke-opacity:1;stroke-dasharray:none"
         d="m 135.5,1031.8289 0,-98.92676"
         id="path3934"
         inkscape:connector-curvature="0" />
      <g
         transform="translate(105,0.00328262)"
         id="g3936">
        <path
           inkscape:connector-curvature="0"
           id="path3938"
           d="m 45.007401,992.86626 0,38.99264"
           style="fill:none;stroke:#000000;stroke-width:1;stroke-linecap:square;stroke-linejoin:miter;stroke-miterlimit:4;stroke-opacity:1;stroke-dasharray:none" />
        <rect
           y="932.36218"
           x="40"
           height="60"
           width="9.9977226"
           id="rect3940"
           style="fill:#000000;fill-opacity:1" />
      </g>
      <g
         id="g3942"
         transform="translate(120,0.00328262)">
        <path
           style="fill:none;stroke:#000000;stroke-width:1;stroke-linecap:square;stroke-linejoin:miter;stroke-miterlimit:4;stroke-opacity:1;stroke-dasharray:none"
           d="m 45.007401,992.86626 0,38.99264"
           id="path3944"
           inkscape:connector-curvature="0" />
        <rect
           style="fill:#000000;fill-opacity:1"
           id="rect3946"
           width="9.9977226"
           height="60"
           x="40"
           y="932.36218" />
      </g>
      <g
         transform="translate(150,0.00328262)"
         id="g3948">
        <path
           inkscape:connector-curvature="0"
           id="path3950"
           d="m 45.007401,992.86626 0,38.99264"
           style="fill:none;stroke:#000000;stroke-width:1;stroke-linecap:square;stroke-linejoin:miter;stroke-miterlimit:4;stroke-opacity:1;stroke-dasharray:none" />
        <rect
           y="932.36218"
           x="40"
           height="60"
           width="9.9977226"
           id="rect3952"
           style="fill:#000000;fill-opacity:1" />
      </g>
      <path
         inkscape:connector-curvature="0"
         id="path3954"
         d="m 180.5,1031.8289 0,-98.92676"
         style="fill:none;stroke:#000000;stroke-width:1;stroke-linecap:square;stroke-linejoin:miter;stroke-miterlimit:4;stroke-opacity:1;stroke-dasharray:none" />
      <g
         id="g3956"
         transform="translate(165,0.00328262)">
        <path
           style="fill:none;stroke:#000000;stroke-width:1;stroke-linecap:square;stroke-linejoin:miter;stroke-miterlimit:4;stroke-opacity:1;stroke-dasharray:none"
           d="m 45.007401,992.86626 0,38.99264"
           id="path3958"
           inkscape:connector-curvature="0" />
        <rect
           style="fill:#000000;fill-opacity:1"
           id="rect3960"
           width="9.9977226"
           height="60"
           x="40"
           y="932.36218" />
      </g>
      <g
         transform="translate(180,0.00328262)"
         id="g3962">
        <path
           inkscape:connector-curvature="0"
           id="path3964"
           d="m 45.007401,992.86626 0,38.99264"
           style="fill:none;stroke:#000000;stroke-width:1;stroke-linecap:square;stroke-linejoin:miter;stroke-miterlimit:4;stroke-opacity:1;stroke-dasharray:none" />
        <rect
           y="932.36218"
           x="40"
           height="60"
           width="9.9977226"
           id="rect3966"
           style="fill:#000000;fill-opacity:1" />
      </g>
    </g>
    <g
       id="g4274">
      <path
         inkscape:connector-curvature="0"
         id="path2985"
         d="m 30.537482,1031.8622 208.925098,0"
         style="fill:none;stroke:#000000;stroke-width:1.03676999;stroke-linecap:square;stroke-linejoin:miter;stroke-miterlimit:4;stroke-opacity:1;stroke-dasharray:none" />
      <path
         inkscape:connector-curvature="0"
         id="path2987"
         d="m 30.5,1031.8256 0,-98.92674"
         style="fill:none;stroke:#000000;stroke-width:1;stroke-linecap:square;stroke-linejoin:miter;stroke-miterlimit:4;stroke-opacity:1;stroke-dasharray:none" />
      <path
         style="fill:#ffffff;fill-opacity:1;stroke:#000000;stroke-width:1;stroke-linecap:square;stroke-linejoin:miter;stroke-miterlimit:4;stroke-opacity:1;stroke-dasharray:none"
         d="m 240.5,1031.8256 0,-98.92674"
         id="path4002"
         inkscape:connector-curvature="0" />
      <path
         style="fill:none;stroke:#000000;stroke-width:1.03676999;stroke-linecap:square;stroke-linejoin:miter;stroke-miterlimit:4;stroke-opacity:1;stroke-dasharray:none"
         d="m 30.537482,932.8438 208.925098,0"
         id="path4006"
         inkscape:connector-curvature="0" />
    </g>
    <g
       id="notes"
       inkscape:label="#g4081">
      <path
         inkscape:label="#path4030"
         transform="translate(30.5,933.8125)"
         d="m 12,90.0625 a 4.5,4.5 0 1 1 -9,0 4.5,4.5 0 1 1 9,0 z"
         sodipodi:ry="4.5"
         sodipodi:rx="4.5"
         sodipodi:cy="90.0625"
         sodipodi:cx="7.5"
         id="note-c-1"
         style="fill:#ff000f;fill-opacity:1;stroke-width:1;stroke-linecap:square;stroke-miterlimit:4;stroke-dasharray:none"
         sodipodi:type="arc" />
      <path
         sodipodi:type="arc"
         style="fill:#ff000f;fill-opacity:1;stroke-width:1;stroke-linecap:square;stroke-miterlimit:4;stroke-dasharray:none"
         id="note-csharp-1"
         sodipodi:cx="7.5"
         sodipodi:cy="90.0625"
         sodipodi:rx="4.5"
         sodipodi:ry="4.5"
         d="m 12,90.0625 a 4.5,4.5 0 1 1 -9,0 4.5,4.5 0 1 1 9,0 z"
         transform="translate(37.5,892.28125)" />
      <path
         inkscape:label="#path4037"
         transform="translate(52.5,892.28125)"
         d="m 12,90.0625 a 4.5,4.5 0 1 1 -9,0 4.5,4.5 0 1 1 9,0 z"
         sodipodi:ry="4.5"
         sodipodi:rx="4.5"
         sodipodi:cy="90.0625"
         sodipodi:cx="7.5"
         id="note-eflat-1"
         style="fill:#ff000f;fill-opacity:1;stroke-width:1;stroke-linecap:square;stroke-miterlimit:4;stroke-dasharray:none"
         sodipodi:type="arc" />
      <path
         inkscape:label="#path4039"
         sodipodi:type="arc"
         style="fill:#ff000f;fill-opacity:1;stroke-width:1;stroke-linecap:square;stroke-miterlimit:4;stroke-dasharray:none"
         id="note-fsharp-1"
         sodipodi:cx="7.5"
         sodipodi:cy="90.0625"
         sodipodi:rx="4.5"
         sodipodi:ry="4.5"
         d="m 12,90.0625 a 4.5,4.5 0 1 1 -9,0 4.5,4.5 0 1 1 9,0 z"
         transform="translate(82.5,892.28125)" />
      <path
         inkscape:label="#path4041"
         transform="translate(97.621193,892.28125)"
         d="m 12,90.0625 a 4.5,4.5 0 1 1 -9,0 4.5,4.5 0 1 1 9,0 z"
         sodipodi:ry="4.5"
         sodipodi:rx="4.5"
         sodipodi:cy="90.0625"
         sodipodi:cx="7.5"
         id="note-aflat-1"
         style="fill:#ff000f;fill-opacity:1;stroke-width:1;stroke-linecap:square;stroke-miterlimit:4;stroke-dasharray:none"
         sodipodi:type="arc" />
      <path
         sodipodi:type="arc"
         style="fill:#ff000f;fill-opacity:1;stroke-width:1;stroke-linecap:square;stroke-miterlimit:4;stroke-dasharray:none"
         id="note-bflat-1"
         sodipodi:cx="7.5"
         sodipodi:cy="90.0625"
         sodipodi:rx="4.5"
         sodipodi:ry="4.5"
         d="m 12,90.0625 a 4.5,4.5 0 1 1 -9,0 4.5,4.5 0 1 1 9,0 z"
         transform="translate(112.64721,892.28125)"
         inkscape:label="#path4043" />
      <path
         inkscape:label="#path4045"
         transform="translate(142.57298,892.28125)"
         d="m 12,90.0625 a 4.5,4.5 0 1 1 -9,0 4.5,4.5 0 1 1 9,0 z"
         sodipodi:ry="4.5"
         sodipodi:rx="4.5"
         sodipodi:cy="90.0625"
         sodipodi:cx="7.5"
         id="note-csharp-2"
         style="fill:#ff000f;fill-opacity:1;stroke-width:1;stroke-linecap:square;stroke-miterlimit:4;stroke-dasharray:none"
         sodipodi:type="arc" />
      <path
         inkscape:label="#path4047"
         sodipodi:type="arc"
         style="fill:#ff000f;fill-opacity:1;stroke-width:1;stroke-linecap:square;stroke-miterlimit:4;stroke-dasharray:none"
         id="note-eflat-2"
         sodipodi:cx="7.5"
         sodipodi:cy="90.0625"
         sodipodi:rx="4.5"
         sodipodi:ry="4.5"
         d="m 12,90.0625 a 4.5,4.5 0 1 1 -9,0 4.5,4.5 0 1 1 9,0 z"
         transform="translate(157.599,892.28125)" />
      <path
         inkscape:label="#path4049"
         transform="translate(187.52477,892.28125)"
         d="m 12,90.0625 a 4.5,4.5 0 1 1 -9,0 4.5,4.5 0 1 1 9,0 z"
         sodipodi:ry="4.5"
         sodipodi:rx="4.5"
         sodipodi:cy="90.0625"
         sodipodi:cx="7.5"
         id="note-fsharp-2"
         style="fill:#ff000f;fill-opacity:1;stroke-width:1;stroke-linecap:square;stroke-miterlimit:4;stroke-dasharray:none"
         sodipodi:type="arc" />
      <path
         inkscape:label="#path4051"
         sodipodi:type="arc"
         style="fill:#ff000f;fill-opacity:1;stroke-width:1;stroke-linecap:square;stroke-miterlimit:4;stroke-dasharray:none"
         id="note-aflat-2"
         sodipodi:cx="7.5"
         sodipodi:cy="90.0625"
         sodipodi:rx="4.5"
         sodipodi:ry="4.5"
         d="m 12,90.0625 a 4.5,4.5 0 1 1 -9,0 4.5,4.5 0 1 1 9,0 z"
         transform="translate(202.42452,892.28125)" />
      <path
         inkscape:label="#path4053"
         transform="translate(217.57681,892.28125)"
         d="m 12,90.0625 a 4.5,4.5 0 1 1 -9,0 4.5,4.5 0 1 1 9,0 z"
         sodipodi:ry="4.5"
         sodipodi:rx="4.5"
         sodipodi:cy="90.0625"
         sodipodi:cx="7.5"
         id="note-bflat-2"
         style="fill:#ff000f;fill-opacity:1;stroke-width:1;stroke-linecap:square;stroke-miterlimit:4;stroke-dasharray:none"
         sodipodi:type="arc" />
      <path
         inkscape:label="#path4055"
         sodipodi:type="arc"
         style="fill:#ff000f;fill-opacity:1;stroke-width:1;stroke-linecap:square;stroke-miterlimit:4;stroke-dasharray:none"
         id="note-d-1"
         sodipodi:cx="7.5"
         sodipodi:cy="90.0625"
         sodipodi:rx="4.5"
         sodipodi:ry="4.5"
         d="m 12,90.0625 a 4.5,4.5 0 1 1 -9,0 4.5,4.5 0 1 1 9,0 z"
         transform="translate(45.273481,933.8125)" />
      <path
         inkscape:label="#path4057"
         transform="translate(60.552038,933.8125)"
         d="m 12,90.0625 a 4.5,4.5 0 1 1 -9,0 4.5,4.5 0 1 1 9,0 z"
         sodipodi:ry="4.5"
         sodipodi:rx="4.5"
         sodipodi:cy="90.0625"
         sodipodi:cx="7.5"
         id="note-e-1"
         style="fill:#ff000f;fill-opacity:1;stroke-width:1;stroke-linecap:square;stroke-miterlimit:4;stroke-dasharray:none"
         sodipodi:type="arc" />
      <path
         inkscape:label="#path4059"
         sodipodi:type="arc"
         style="fill:#ff000f;fill-opacity:1;stroke-width:1;stroke-linecap:square;stroke-miterlimit:4;stroke-dasharray:none"
         id="note-f-1"
         sodipodi:cx="7.5"
         sodipodi:cy="90.0625"
         sodipodi:rx="4.5"
         sodipodi:ry="4.5"
         d="m 12,90.0625 a 4.5,4.5 0 1 1 -9,0 4.5,4.5 0 1 1 9,0 z"
         transform="translate(75.325519,933.8125)" />
      <path
         inkscape:label="#path4061"
         transform="translate(90.351538,933.8125)"
         d="m 12,90.0625 a 4.5,4.5 0 1 1 -9,0 4.5,4.5 0 1 1 9,0 z"
         sodipodi:ry="4.5"
         sodipodi:rx="4.5"
         sodipodi:cy="90.0625"
         sodipodi:cx="7.5"
         id="note-g-1"
         style="fill:#ff000f;fill-opacity:1;stroke-width:1;stroke-linecap:square;stroke-miterlimit:4;stroke-dasharray:none"
         sodipodi:type="arc" />
      <path
         inkscape:label="#path4063"
         sodipodi:type="arc"
         style="fill:#ff000f;fill-opacity:1;stroke-width:1;stroke-linecap:square;stroke-miterlimit:4;stroke-dasharray:none"
         id="note-a-1"
         sodipodi:cx="7.5"
         sodipodi:cy="90.0625"
         sodipodi:rx="4.5"
         sodipodi:ry="4.5"
         d="m 12,90.0625 a 4.5,4.5 0 1 1 -9,0 4.5,4.5 0 1 1 9,0 z"
         transform="translate(105.25129,933.8125)" />
      <path
         inkscape:label="#path4065"
         transform="translate(120.27731,933.8125)"
         d="m 12,90.0625 a 4.5,4.5 0 1 1 -9,0 4.5,4.5 0 1 1 9,0 z"
         sodipodi:ry="4.5"
         sodipodi:rx="4.5"
         sodipodi:cy="90.0625"
         sodipodi:cx="7.5"
         id="note-b-1"
         style="fill:#ff000f;fill-opacity:1;stroke-width:1;stroke-linecap:square;stroke-miterlimit:4;stroke-dasharray:none"
         sodipodi:type="arc" />
      <path
         inkscape:label="#path4067"
         sodipodi:type="arc"
         style="fill:#ff000f;fill-opacity:1;stroke-width:1;stroke-linecap:square;stroke-miterlimit:4;stroke-dasharray:none"
         id="note-c-2"
         sodipodi:cx="7.5"
         sodipodi:cy="90.0625"
         sodipodi:rx="4.5"
         sodipodi:ry="4.5"
         d="m 12,90.0625 a 4.5,4.5 0 1 1 -9,0 4.5,4.5 0 1 1 9,0 z"
         transform="translate(135.17706,933.8125)" />
      <path
         inkscape:label="#path4069"
         transform="translate(150.20308,933.8125)"
         d="m 12,90.0625 a 4.5,4.5 0 1 1 -9,0 4.5,4.5 0 1 1 9,0 z"
         sodipodi:ry="4.5"
         sodipodi:rx="4.5"
         sodipodi:cy="90.0625"
         sodipodi:cx="7.5"
         id="note-d-2"
         style="fill:#ff000f;fill-opacity:1;stroke-width:1;stroke-linecap:square;stroke-miterlimit:4;stroke-dasharray:none"
         sodipodi:type="arc" />
      <path
         inkscape:label="#path4071"
         sodipodi:type="arc"
         style="fill:#ff000f;fill-opacity:1;stroke-width:1;stroke-linecap:square;stroke-miterlimit:4;stroke-dasharray:none"
         id="note-e-2"
         sodipodi:cx="7.5"
         sodipodi:cy="90.0625"
         sodipodi:rx="4.5"
         sodipodi:ry="4.5"
         d="m 12,90.0625 a 4.5,4.5 0 1 1 -9,0 4.5,4.5 0 1 1 9,0 z"
         transform="translate(165.2291,933.8125)" />
      <path
         inkscape:label="#path4073"
         transform="translate(180.12885,933.8125)"
         d="m 12,90.0625 a 4.5,4.5 0 1 1 -9,0 4.5,4.5 0 1 1 9,0 z"
         sodipodi:ry="4.5"
         sodipodi:rx="4.5"
         sodipodi:cy="90.0625"
         sodipodi:cx="7.5"
         id="note-f-2"
         style="fill:#ff000f;fill-opacity:1;stroke-width:1;stroke-linecap:square;stroke-miterlimit:4;stroke-dasharray:none"
         sodipodi:type="arc" />
      <path
         inkscape:label="#path4075"
         sodipodi:type="arc"
         style="fill:#ff000f;fill-opacity:1;stroke-width:1;stroke-linecap:square;stroke-miterlimit:4;stroke-dasharray:none"
         id="note-g-2"
         sodipodi:cx="7.5"
         sodipodi:cy="90.0625"
         sodipodi:rx="4.5"
         sodipodi:ry="4.5"
         d="m 12,90.0625 a 4.5,4.5 0 1 1 -9,0 4.5,4.5 0 1 1 9,0 z"
         transform="translate(194.64979,933.8125)" />
      <path
         inkscape:label="#path4077"
         transform="translate(209.80208,933.8125)"
         d="m 12,90.0625 a 4.5,4.5 0 1 1 -9,0 4.5,4.5 0 1 1 9,0 z"
         sodipodi:ry="4.5"
         sodipodi:rx="4.5"
         sodipodi:cy="90.0625"
         sodipodi:cx="7.5"
         id="note-a-2"
         style="fill:#ff000f;fill-opacity:1;stroke-width:1;stroke-linecap:square;stroke-miterlimit:4;stroke-dasharray:none"
         sodipodi:type="arc" />
      <path
         inkscape:label="#path4079"
         sodipodi:type="arc"
         style="fill:#ff000f;fill-opacity:1;stroke-width:1;stroke-linecap:square;stroke-miterlimit:4;stroke-dasharray:none"
         id="note-b-2"
         sodipodi:cx="7.5"
         sodipodi:cy="90.0625"
         sodipodi:rx="4.5"
         sodipodi:ry="4.5"
         d="m 12,90.0625 a 4.5,4.5 0 1 1 -9,0 4.5,4.5 0 1 1 9,0 z"
         transform="translate(225.33318,933.8125)" />
    </g>
  </g>
</svg>
